<svg xmlns="http://www.w3.org/2000/svg" width="1024" height="768"><g fill="#373125" style="font-style:normal;font-weight:400;font-size:72px;line-height:1;font-family:&quot;Brandmark Serif 2&quot;;font-variant-ligatures:normal;text-align:center;text-anchor:middle"><path d="M355.167.072v.144c4.968-.18 10.764-2.412 10.764-9.108 0-6.624-6.012-10.512-10.44-13.536-5.544-3.78-8.568-6.444-8.568-9.648 0-2.34 1.512-3.744 4.14-4.14v-.144c-4.968.18-10.764 2.808-10.764 9.36 0 5.364 3.852 9.324 9.684 13.356 5.364 3.708 9.252 6.264 9.252 9.792 0 2.304-1.44 3.528-4.068 3.924zm-15.552-14.58c.612 4.86.684 10.26.216 14.112l.144.072c2.7-1.188 6.948.108 11.952.54V.072C345.627-1.44 342.171-9 339.76-14.58zm14.328-21.672c5.904 1.98 8.676 9.396 10.908 14.436l.144-.072c-.648-5.004-1.044-10.332-.576-14.112l-.144-.072c-2.052 1.62-5.796.036-10.332-.324zM387.352.288c9.432.072 13.32-5.292 14.22-8.064l-.144-.036c-1.584 3.42-5.688 6.876-10.728 6.876-7.38 0-11.304-7.452-11.376-17.748-.072-9.216 3.024-16.668 7.056-17.46v-.144c-9.864.36-16.956 8.424-16.704 19.26.252 11.016 7.74 17.244 17.676 17.316zm2.268-36.432c4.896.9 8.676 9.108 11.016 15.624h.144c-.432-3.924-.504-10.62-.036-14.94l-.144-.072c-3.384 2.484-5.796-.54-10.98-.756zM403.536-.144V0h18.756v-.144c-3.24-.72-5.327-2.88-5.327-6.48V-36.54c-4.428 1.692-8.604 2.844-13.752 3.924v.144c3.24.54 4.932 2.376 4.932 6.768v19.08c0 3.6-1.728 5.76-4.608 6.48zm15.588-26.892.144.036c1.117-2.556 2.089-3.42 3.493-3.42 2.34 0 5.184 3.276 5.616 8.28l.144.036c1.62-4.68 3.132-8.388 4.68-12.204-1.512-1.116-3.564-2.16-5.724-2.16-3.672 0-6.696 3.096-8.352 9.432zM450.712.288c10.008.072 14.4-6.372 15.3-9.504l-.144-.036c-1.584 3.78-6.192 8.316-12.06 8.316-7.632 0-11.412-7.596-11.484-17.928-.036-9.036 3.024-16.488 7.056-17.28v-.144c-9.864.36-16.956 8.424-16.704 19.44.252 10.836 7.596 17.064 18.036 17.136zm-4.788-20.052 20.772-.18c-.252-9.072-5.58-15.912-14.076-16.344v.144c2.7 1.008 4.68 4.788 4.788 9.468.072 4.572-1.728 6.084-11.484 6.768zM488.54.288c10.008.072 14.4-6.372 15.3-9.504l-.144-.036c-1.584 3.78-6.192 8.316-12.06 8.316-7.632 0-11.412-7.596-11.484-17.928-.036-9.036 3.024-16.488 7.056-17.28v-.144c-9.864.36-16.956 8.424-16.704 19.44C470.756-6.012 478.1.216 488.54.288zm-4.788-20.052 20.772-.18c-.252-9.072-5.58-15.912-14.076-16.344v.144c2.7 1.008 4.68 4.788 4.788 9.468.072 4.572-1.728 6.084-11.484 6.768zM507.036-.144V0h17.856v-.144c-2.88-.72-4.608-2.88-4.608-6.48V-36.54c-4.427 1.692-8.423 2.844-13.571 3.924v.144c3.24.54 4.932 2.376 4.932 6.768v19.08c0 3.6-1.728 5.76-4.608 6.48zm16.848-30.96.072.144c1.512-1.224 3.852-2.772 6.588-2.772 3.348 0 4.896 2.556 4.896 8.64 0 5.724-.324 11.376-.324 17.1 0 4.536.792 8.28 6.264 8.28 3.6 0 6.768-1.224 8.856-2.844l-.072-.144c-4.284 1.836-6.12-.792-6.12-6.228 0-6.264.324-11.124.324-16.74 0-7.74-3.6-10.62-9.108-10.62-4.716 0-8.712 2.34-11.376 5.184z" style="font-style:normal;font-weight:400;font-size:72px;line-height:1;font-family:&quot;Brandmark Serif 2&quot;;font-variant-ligatures:normal;text-align:center;text-anchor:middle" transform="matrix(1.4 0 0 1.4 -209.148 414.14)"/><path d="M550.028 14.4v.144h17.856V14.4c-2.88-.72-4.608-2.88-4.608-6.48v-44.46c-4.428 1.692-8.424 2.844-13.572 3.924v.144c3.24.54 4.932 2.376 4.932 6.768V7.92c0 3.6-1.728 5.76-4.608 6.48zm16.56-16.056C567.812-.9 569.9.18 573.572.18c9.936 0 15.876-7.992 15.876-19.116 0-10.656-5.868-17.244-13.5-17.244-3.852 0-7.128 1.692-9.072 3.888l.072.144c1.224-.936 2.7-1.692 4.5-1.692 4.86 0 8.352 6.012 8.352 15.048 0 8.856-3.42 17.604-10.26 17.604a6.853 6.853 0 0 1-2.88-.612zM601.7-42.552c3.096 0 5.58-2.484 5.58-5.616a5.562 5.562 0 0 0-5.58-5.58c-3.132 0-5.616 2.484-5.616 5.58a5.578 5.578 0 0 0 5.616 5.616zm-8.784 9.9c3.24.54 4.932 2.376 4.932 6.768v19.26c0 3.6-1.728 5.76-4.608 6.48V0h17.856v-.144c-2.88-.72-4.608-2.88-4.608-6.48V-36.72c-4.428 1.692-8.424 2.844-13.572 3.924zM632.04.288c9.432.072 13.32-5.292 14.22-8.064l-.144-.036c-1.584 3.42-5.688 6.876-10.728 6.876-7.38 0-11.304-7.452-11.376-17.748-.072-9.216 3.024-16.668 7.056-17.46v-.144c-9.864.36-16.956 8.424-16.704 19.26.252 11.016 7.74 17.244 17.676 17.316zm2.268-36.432c4.896.9 8.676 9.108 11.016 15.624h.144c-.432-3.924-.504-10.62-.036-14.94l-.144-.072c-3.384 2.484-5.796-.54-10.98-.756zM647.684-.144V0h17.856v-.144c-2.88-.72-4.608-2.88-4.608-6.48V-57.6c-4.428 1.692-8.424 2.844-13.572 3.924v.144c3.24.54 4.932 2.376 4.932 6.768v40.14c0 3.6-1.728 5.76-4.608 6.48zm16.416-17.1.072.108c1.44.36 2.772 3.06 6.372 9.144 2.34 3.96 4.644 8.28 10.728 8.28 3.24 0 7.236-1.224 9.324-2.88l-.108-.144c-.792.36-1.584.648-2.556.648-2.52 0-4.644-2.448-10.26-11.196-4.248-6.588-5.76-9.036-5.616-11.052l-.108-.108zm6.66-18.612c4.068.756 7.632 4.824 3.888 9l.144.108c3.852-4.032 8.46-7.416 12.996-9.108V-36H670.76Z" style="font-style:normal;font-weight:400;font-size:72px;line-height:1;font-family:&quot;Brandmark Serif 2&quot;;font-variant-ligatures:normal;text-align:center;text-anchor:middle" transform="matrix(1.4 0 0 1.4 -209.148 414.14)"/></g></svg>